PathFileType	4	(X/Y/Z)	Patient4_TMGait_0pt6_02_left_28.trc.trc
DataRate	CameraRate	NumFrames	NumMarkers	Units	OrigDataRate	OrigDataStartFrame	OrigNumFrames
81.395348837209	81.395348837209	6	33	mm	81.395348837209	36	       141
Frame#	Time	Sacral			L.Shoulder			Chest			R.Shoulder			Neck			R.ASIS			L.ASIS			R.Thigh.Superior			R.Thigh.Lateral			R.Thigh.Inferior			R.Patella			L.Thigh.Superior			L.Thigh.Lateral			L.Thigh.Inferior			L.Patella			L.Shank.Superior			L.Shank.Lateral			L.Shank.Inferior			R.Shank.Superior			R.Shank.Lateral			R.Shank.Inferior			R.Heel			R.Midfoot.Superior			R.Midfoot.Lateral			R.Toe			L.Heel			L.Midfoot.Lateral			L.Midfoot.Superior			L.Toe			L.Elbow			L.Wrist			R.Elbow			R.Wrist			
		X1	Y1	Z1	X2	Y2	Z2	X3	Y3	Z3	X4	Y4	Z4	X5	Y5	Z5	X6	Y6	Z6	X7	Y7	Z7	X8	Y8	Z8	X9	Y9	Z9	X10	Y10	Z10	X11	Y11	Z11	X12	Y12	Z12	X13	Y13	Z13	X14	Y14	Z14	X15	Y15	Z15	X16	Y16	Z16	X17	Y17	Z17	X18	Y18	Z18	X19	Y19	Z19	X20	Y20	Z20	X21	Y21	Z21	X22	Y22	Z22	X23	Y23	Z23	X24	Y24	Z24	X25	Y25	Z25	X26	Y26	Z26	X27	Y27	Z27	X28	Y28	Z28	X29	Y29	Z29	X30	Y30	Z30	X31	Y31	Z31	X32	Y32	Z32	X33	Y33	Z33	

36	34.650000000000	923.691498175078	1017.547653578278	482.339089501478	1126.043218909315	1429.172425166001	293.795393623184	1236.976457425412	1343.961240455092	441.458468649385	1180.620890719128	1426.326788060779	621.191586667195	1147.511633055055	1485.312496943491	444.243161889574	1147.562856465088	931.035754839140	586.524094207072	1123.267929968887	950.854732744245	313.581278096134	1138.069148623048	719.262957685199	569.167186140858	1030.904033564799	632.424307872674	634.100635265176	1092.931515206644	558.944037891553	559.557075923184	1068.474328576333	465.058967148046	571.929470282030	1191.283642443452	768.895763972419	359.901606792891	1130.898277259900	638.932786880864	291.752790798056	1225.489695529813	574.403721602938	358.862766135328	1237.352713948002	501.336237895715	365.752128589930	1213.286022979689	427.335971261515	356.327509259129	1131.829425882353	308.242330193238	304.401227874860	1190.554637609378	199.108511159717	372.180276664409	1007.312005226901	393.953131516994	580.567548221709	901.559546758521	326.539319922362	643.666014953261	909.096896512273	218.754465751837	587.939971649471	727.360942212838	95.032074350118	560.158061558221	905.796786308005	105.428658132291	601.047078009286	804.348731740164	62.494939732191	633.165300694415	1006.796933969867	36.764635302101	626.592936902453	1069.074824137129	40.280627610141	410.652911436125	1143.928067269554	37.857726772428	331.296686830628	1227.616289205571	97.951158739091	359.131183567538	1355.862861071293	41.975241928583	331.930662060529	992.814398324152	1098.745099648531	191.565762058104	1038.084192783157	840.382123375686	170.875506314130	1217.646810826019	1075.348618071202	723.331677359883	1429.911634724965	999.390180315793	605.684590759034	
37	34.662285714286	924.618849445185	1018.792411105596	479.380436688675	1127.225478609506	1430.690768779661	291.615469149882	1238.026169425091	1345.156113105250	439.150740619235	1181.600307784320	1427.314209269890	619.012966452772	1148.577215896583	1486.488496403845	442.136167431740	1148.193331774110	932.099102183923	583.502337374929	1124.398827628571	951.886531839087	310.744775056115	1140.931846124027	720.413804021275	567.171330250769	1034.841783321121	632.608008427296	632.197358468111	1098.352597137758	559.345881564121	558.134048661297	1074.528112719664	463.823572017135	571.910621483093	1191.245243550356	768.495682840758	356.742358905561	1128.779128442177	638.803997090292	289.903895207708	1222.852200250940	573.515061578096	357.003932938940	1234.030529461476	500.580295165786	364.385426972814	1209.233082192334	426.773295411120	355.153394359077	1126.668047102073	308.266147452436	303.657154657981	1184.398649361948	198.886983393862	371.857915835020	1010.875855113740	394.103816068765	580.242089114118	902.984768358538	329.929446717912	643.069071525145	908.209191692806	221.492374427405	588.279085146455	723.260101737230	103.282089136320	560.592539904510	901.867596489941	106.817194347660	601.667135885767	798.912695612147	67.392228486272	633.329418762360	999.558017631765	36.335211653861	626.486483648630	1061.776721574478	40.320826424031	410.653601726471	1136.601632063411	37.870004266378	331.313987099035	1220.265392776922	98.005423072667	359.079400679425	1348.536257003958	41.967165106512	331.808524519262	994.201752020853	1100.478386712671	188.312640986445	1046.444044044177	843.426419983717	167.523246698079	1212.045358436624	1075.197236525712	721.145768327979	1421.210842764433	983.455970052854	608.319671983391	
38	34.674571428571	925.371869157429	1019.947724971060	476.440910451335	1128.505363907127	1432.087391336761	289.409344210460	1239.010028057621	1346.281151962783	436.943696644592	1182.296885587169	1428.232388446336	616.880915280306	1149.518622120462	1487.583908947262	440.011698036648	1148.629223302793	933.104143528424	580.605062480187	1125.449092298592	952.781281787658	308.077237371464	1144.281624903745	721.652468134996	565.258495142484	1039.521005520488	632.629450950947	630.315202527248	1104.651555938629	559.753954066955	556.648416593247	1081.540029985306	462.563550342900	571.750660773962	1190.936258674491	767.753106417582	353.480005405583	1126.251835723809	638.549190606949	287.973780542132	1219.775848688894	572.490252761435	355.080894424818	1230.244008844653	499.745174458497	362.876929294510	1204.781747759381	426.146403585205	353.854009552445	1121.178278655613	308.161138114109	302.829701347783	1178.032849321845	198.609551587794	371.457430696137	1015.410634677324	394.218213642140	579.809983888735	905.423104229073	333.544597781807	642.428168487930	908.064890432117	224.546526761014	588.573992954929	719.920514849030	112.609932499031	561.030787559017	898.339817710172	108.574249940450	602.245751759878	793.931880449886	73.208587496985	633.538745047713	992.308620106236	35.718627443489	626.420072595217	1054.433712222028	40.334356454045	410.652764513120	1129.225741809327	37.827159973335	331.314861016619	1212.880680179877	97.976047931071	359.008483511175	1341.173484267513	41.900686349133	331.686437163961	995.492439732801	1102.222297799075	184.916167342217	1054.901571550456	846.707648616931	164.209096785455	1206.339247389281	1075.128179723684	718.874573455233	1411.330608991290	967.111747297872	611.682716191796	
39	34.686857142857	925.908372404765	1020.981979676530	473.542117717721	1129.876492541926	1433.316587477964	287.197429602653	1239.912190438932	1347.267313258484	434.856800645507	1182.720242943858	1429.029239003082	614.812736406085	1150.335992227944	1488.558145894461	437.893292517220	1148.836316844703	934.015655381524	577.844911310371	1126.376775535679	953.520843833509	305.566537853151	1148.106828949198	723.005361023724	563.353795583946	1045.023555872629	632.500072873239	628.441698002515	1111.867583324089	560.208002454791	555.043183766581	1089.564582515850	461.330121878650	571.375242782600	1190.413314995653	766.782880096535	350.205170585011	1123.485203324892	638.232485517864	285.998423949693	1216.419890100395	571.399677921233	353.124977011838	1226.155868587597	498.862981990683	361.263399971813	1200.085666048450	425.466538478556	352.470834391841	1115.501091352610	307.965557535496	301.921603401599	1171.525243219986	198.281421380881	370.994458127041	1020.993754876208	394.314688173464	579.225264100813	908.977725882650	337.404680723090	641.713690752019	908.747749066333	227.968171839441	588.790102037437	717.499055454395	123.107290398133	561.446828205207	895.286588629013	110.813888664603	602.743679246189	789.535081572751	80.072750715610	633.774080066681	985.105969707279	34.906233612699	626.408126522282	1047.051965859690	40.330014560179	410.635129720492	1121.811771905278	37.745310201436	331.289520050727	1205.471563721631	97.881771703235	358.918223917656	1333.783918430679	41.787516699129	331.567827602536	996.790012542698	1103.900603375258	181.366865171469	1063.422016602570	850.137154039282	160.933356975963	1200.525446744261	1075.082555286297	716.564849107724	1400.187388363906	950.641704310660	615.723215069673	
40	34.699142857143	926.199276763900	1021.869138789837	470.694701131347	1131.316640311677	1434.347297466758	285.005699117288	1240.712643493393	1348.061921963547	432.909191442824	1182.880590615002	1429.663123834713	612.828184026678	1151.032444117598	1489.380354246905	435.809816367079	1148.789512166442	934.814683181957	575.239796923338	1127.157823441852	954.094424008400	303.199737740672	1152.362369813790	724.512643312566	561.376790227438	1051.389970408519	632.262021019315	626.566983185477	1119.993383999519	560.772805910800	553.271511030206	1098.626025929068	460.198127330882	570.732155243028	1189.739586849774	765.687743350343	347.001073875266	1120.622599056207	637.898269540215	284.021311765829	1212.929752168327	570.294315236281	351.174069809047	1221.920837718641	497.956415379579	359.598352118908	1195.285730974931	424.742394272648	351.054345209509	1109.762544019816	307.714687286300	300.950871845920	1164.942522900200	197.908955241403	370.490568249712	1027.669174049808	394.434266235407	578.454073325955	913.714046043517	341.533344809154	640.893281559158	910.334769978360	231.807428296771	588.890851637127	716.156964422805	134.802122035016	561.795107476230	892.803866987617	113.640270336891	603.113288566584	785.872941581832	88.065589159323	633.997857628502	978.048904778862	33.932090382137	626.455286457314	1039.641763850698	40.315165818273	410.591698756846	1114.373004512199	37.640245105997	331.233172580668	1198.047390932784	97.744122270415	358.810316899669	1326.377374350847	41.645882731230	331.452820542136	998.192385249811	1105.444391460605	177.666403456188	1071.977348168181	853.627373687533	157.697938105901	1194.580872254457	1075.014717229026	714.282325635822	1387.731369074759	934.344949982029	620.374878692353	
41	34.711428571429	926.233166233609	1022.588611174763	467.901245889693	1132.792086719786	1435.162364303812	282.861204383964	1241.389172827014	1348.634606611202	431.120203188953	1182.781927024323	1430.108297328439	610.947396453545	1151.612272980104	1490.031449130797	433.789347789406	1148.477459954596	935.499541650521	572.817460237221	1127.788049937513	954.499809580193	300.970758842409	1156.972920839849	726.222996803783	559.256364086191	1058.608571818751	631.986687730882	624.687280039889	1128.969885440368	561.533521110711	551.306201574343	1108.708604214419	459.263295527995	569.795753869519	1188.976566402722	764.545490668125	343.936686333059	1117.772223384362	637.571124369460	282.087502004316	1209.423408420113	569.205114518450	349.267935655035	1217.667997519773	497.038803211924	357.941467437918	1190.495802581235	423.980506810967	349.655849163346	1104.062249416763	307.437635813702	299.945062283226	1158.343440964535	197.499194299591	369.969274894808	1035.440353644049	394.638927594662	577.478583507301	919.652559039782	345.950962529457	639.936117495365	912.893066127740	236.101709378000	588.840197378877	716.047139736722	147.630222041752	562.013772631234	891.012333887659	117.130463920580	603.302918817296	783.113420754240	97.192173966240	634.156467296921	971.289705275289	32.882670156529	626.552275687221	1032.214982846457	40.296269145256	410.519259268452	1106.922447820247	37.525816747444	331.145671346229	1190.617156559798	97.583395559396	358.688002456023	1318.962950694310	41.494130557390	331.339485309520	999.781180091173	1106.795027151986	173.828171146691	1080.544749597033	857.096944120236	154.507955434786	1188.466001113889	1074.900400669638	712.106141415548	1373.951610941531	918.522374526501	625.560562492504	
